<?xml version="1.0" encoding="UTF-8" standalone="no"?>
<!-- Generator: Adobe Illustrator 22.1.0, SVG Export Plug-In . SVG Version: 6.00 Build 0)  -->

<svg
   xmlns:dc="http://purl.org/dc/elements/1.1/"
   xmlns:cc="http://creativecommons.org/ns#"
   xmlns:rdf="http://www.w3.org/1999/02/22-rdf-syntax-ns#"
   xmlns:svg="http://www.w3.org/2000/svg"
   xmlns="http://www.w3.org/2000/svg"
   xmlns:sodipodi="http://sodipodi.sourceforge.net/DTD/sodipodi-0.dtd"
   xmlns:inkscape="http://www.inkscape.org/namespaces/inkscape"
   version="1.1"
   id="Warstwa_1"
   x="0px"
   y="0px"
   viewBox="0 0 549.20002 549.2"
   xml:space="preserve"
   sodipodi:docname="stwur.svg"
   width="549.20001"
   height="549.20001"
   inkscape:version="0.92.3 (2405546, 2018-03-11)"><metadata
   id="metadata215"><rdf:RDF><cc:Work
       rdf:about=""><dc:format>image/svg+xml</dc:format><dc:type
         rdf:resource="http://purl.org/dc/dcmitype/StillImage" /></cc:Work></rdf:RDF></metadata><defs
   id="defs213" /><sodipodi:namedview
   pagecolor="#ffffff"
   bordercolor="#666666"
   borderopacity="1"
   objecttolerance="10"
   gridtolerance="10"
   guidetolerance="10"
   inkscape:pageopacity="0"
   inkscape:pageshadow="2"
   inkscape:window-width="1853"
   inkscape:window-height="1025"
   id="namedview211"
   showgrid="false"
   inkscape:zoom="0.28031832"
   inkscape:cx="-140.74895"
   inkscape:cy="281.64999"
   inkscape:window-x="67"
   inkscape:window-y="27"
   inkscape:window-maximized="1"
   inkscape:current-layer="Warstwa_1" />
<style
   type="text/css"
   id="style2">
	.st0{fill:#FFFFFF;stroke:#000000;stroke-miterlimit:10;}
</style>
<g
   id="g208"
   transform="translate(-22.799988,-153.39999)">
	<circle
   class="st0"
   cx="297.39999"
   cy="428"
   r="274.10001"
   id="circle4"
   style="fill:#ffffff;stroke:#000000;stroke-miterlimit:10" />
	<path
   d="m 397.2,451.1 c 0,0 -0.9,0 -1.4,0 L 395,426.8 c -0.1,-1.5 -1.6,-2.4 -2.9,-1.8 -2.5,1.2 -5.6,2.8 -5.5,3.5 0.2,0.9 -0.1,14.8 0.2,20.2 0.1,1.2 -0.9,2.1 -2,2.1 h -16.1 c -1.1,0 -2,-0.9 -2,-2 0,-6.3 0.3,-24.2 0.1,-26.5 -0.1,0 -1.4,0 -1.5,0 0,1.9 -0.2,20.3 -0.2,26.7 0,1.1 -0.9,2 -2,2 H 362 c -1.1,0 -2,-0.9 -2,-2 0,-5.5 0,-21.1 0,-28.2 0,-0.6 -0.2,-1.2 -0.3,-1.8 -0.3,0 -1.2,0 -1.5,0 -0.3,1.3 -0.3,2.5 -0.3,3.7 0,4.8 0,9.7 0,14.5 0,3.8 0,7.6 -0.1,11.7 0,1.1 -0.9,2 -2,2 h -10.3 c -1.1,0 -2,-0.9 -2,-2 v -9.3 c 0,-3.8 0.4,-14.5 0.4,-18.3 -0.1,-3.7 -3.3,-4.2 -3.3,-1 0,7.3 -0.2,23.1 -0.2,28.7 0,1.1 -0.9,2 -2,2 l -15.7,-0.1 c -1.1,0 -2,-0.9 -2,-2 v -31.5 c -2.2,-0.4 -2.9,0.4 -2.9,2.2 -0.1,6.8 -0.2,13.6 -0.2,20.4 0,2.9 0,5.9 0,8.9 0,1.1 -0.9,2 -2,2 H 298 c -1.1,0 -2,-0.9 -2,-2 V 417 c 0,-1.1 0.8,-1.9 1.9,-2 2.1,-0.2 4.3,-0.4 6.4,-0.4 10,-0.1 19.9,0 29.9,0 0.5,0 1,0 1.4,0.1 6.7,0.5 13.4,0.8 20.1,1.6 2.9,0.3 5.7,1.1 8.7,1.9 1.3,0.3 2.5,-0.6 2.5,-2 v -5.3 c 0,-1 -0.7,-1.9 -1.7,-2 -23.7,-3.8 -45.6,-3.5 -69.2,-3.4 -0.5,-1.1 -0.3,-1.9 1.2,-2 3.4,-0.2 6.8,-0.5 10.2,-0.5 7,-0.1 13.9,-0.3 20.9,0 11.4,0.5 22.8,0.6 35,2.5 1,0.1 3.8,0.7 3.8,0.7 0,0 -0.2,-1.6 -0.2,-1.9 L 356,401.4 c -0.8,-0.2 -1.3,-0.8 -1.5,-1.6 -0.2,-1 -0.4,-2.1 -0.4,-3.3 -0.1,-7.2 -0.1,-14.4 -0.1,-21.6 0,-3.4 2.8,-7.9 6.1,-7.9 5.4,0 16.3,2 16.3,2 2.6,0.1 3,0.7 3,4 0,10 0,20 0,30 0,1.4 0,2.1 0,3.8 1.4,-0.3 2.4,0.3 3.8,0 0,-1.5 0,-2.9 0,-4.3 -0.3,-9.7 -0.5,-19.4 -0.8,-29.1 -0.1,-2.6 0.9,-3.9 3.3,-3.8 4.7,0.3 9.4,0.8 14.1,1.3 1.5,0.1 2.7,0.2 2.9,1.7 0.1,0.6 0.1,2.1 0,2.7 -0.1,8.1 -0.3,16.3 -0.4,24.4 0,1.9 0,3.9 0,6.2 1.3,-0.4 2.3,0.4 3.1,0.2 0,-6.9 -0.1,-14.6 -0.2,-21.3 0,-2.4 -0.2,-4.8 -0.3,-7.2 -0.1,-3.5 2.6,-5.9 6,-5.3 4.2,0.8 8.4,1.6 12.5,2.5 1.4,0.3 2.3,1.2 2.2,2.8 -0.1,2 0,3.5 0,6.4 0,0 2.5,0.4 3,0.1 1.5,-0.8 -1.5,-8.4 2.8,-7.4 1.2,0.3 9.6,2.1 10.5,2.3 0.1,0 0.1,0 0.2,0 l 13.6,2.6 c 2.1,0.1 3.8,1.9 3.8,4 0,2.9 0,3.2 0,6.6 0,1.1 0.3,2 1.4,2 0,0 5.4,1 7.6,1.4 5,0.8 12,1.1 19.2,3.1 3.7,1 6.9,2.3 7.5,2.9 L 469,399.4 c -7,-0.2 -14.6,-0.3 -21.3,-0.3 -6.8,0 -13.6,0 -20.3,0 -0.5,1.9 0.3,2.3 1.6,2.4 11.9,0.3 23.8,0.6 35.8,0.8 8.4,0.2 25.2,1.5 26.6,1.7 3.9,0.5 6,1.1 6.1,1.1 1.6,0.2 4.2,1.3 5.2,2.2 -1.1,-0.2 -10.8,-1.2 -22.9,-1.6 -22,-0.7 -52,-0.7 -52.1,-0.7 0.2,0 0.1,1.3 0.7,1.3 l 23.4,0.8 14.7,0.5 c 0,0 15.2,0.5 23.1,1.1 3.8,0.3 7.7,0.8 11.6,1.3 2.4,0.3 4.4,1.8 5.5,3.9 l 0.6,1.2 c 0.8,4.5 0.7,9.5 0.9,14.1 0.3,6.4 0.5,12.7 0.5,19.3 0,1.6 -0.5,2.6 -2.1,2.6 v 0 c -1.7,0 -2.1,-0.9 -2.1,-2.7 0.2,-9.3 -0.6,-21.7 -0.6,-24.6 0,-0.5 -0.1,-7.1 -0.5,-7.3 -3.4,-1.3 -22.3,-1.1 -37.7,-1.6 -1.7,-0.1 -3.4,1.5 -4.2,2.4 -0.5,0.6 -3.9,1.8 -4.2,1.2 -1.9,-3.3 -2.8,-5.7 -11.6,-6.9 -18.6,-2.6 -33.3,-1.3 -39.9,0.5 -5.3,1.4 -7.6,3.5 -8.3,6.4 m -12.3,-3.7"
   id="path6"
   inkscape:connector-curvature="0" />
	<path
   d="m 334.6,399.1 c -0.2,-2.7 -0.5,-6.4 0.2,-9.5 0.2,-0.8 1,-1.3 1.8,-1.1 l 5.6,1.1 c 0.7,0.1 1.2,0.7 1.2,1.4 l 0.3,7.7 c 1.2,0.3 1.8,0.3 3,0.6 v -8.4 c 0,-0.5 -0.3,-1 -0.7,-1.3 -2.6,-1.7 -5.2,-2.7 -8.1,-3.2 -9.2,-1.6 -20.5,-3.3 -30,-3.9 -3.9,-0.2 -12.4,0.2 -12.4,0.2 l -0.2,-2.6 c 0,0 8.4,0 12.6,0.2 4.4,0.2 9.4,0.5 13.8,0.9 4.3,0.4 9.5,1.7 12.5,2.2 4,0.6 8.2,1.8 12.1,1.9 -4,-3.7 -9,-4.6 -13.9,-5.5 -10.5,-1.9 -21.1,-2.2 -31.7,-2.1 -1,0 -3.9,-0.2 -5.1,-0.2 l -0.3,-7.4 c 0,-0.4 0,-2.7 0,-2.7 0,0 -0.4,-5.1 1.1,-5.6 L 317,363 c 1.8,0 2.3,3.8 2.7,5.6 l 1.2,8.2 c 1,0.1 2.1,0.2 3.7,0.4 0,-1.5 0,-2.8 0,-4 -0.1,-4.4 0.7,-9 5.2,-8.9 5.5,0.1 17.6,1.3 17.6,1.3 2.9,0.9 4.2,6.4 3.8,9 -0.3,2.4 -0.7,4.7 -0.6,7.1 0.4,9.3 -0.3,10.8 0,15.8 0,0.5 0.1,2.7 0,3 0,0 -2.2,-0.9 -8.5,-1.5"
   id="path8"
   inkscape:connector-curvature="0" />
	<path
   d="m 391.8,327.8 c 0,0 4.4,0.7 6.8,1.2 0.5,0.1 0.9,0.6 0.9,1.1 0,4.3 0,8.7 0,12.9 0.9,0.1 1.5,0.2 2.2,0.3 v -12.5 c 0,-0.7 0.6,-1.2 1.3,-1.1 5.4,1.1 12.1,2 12.1,2 l -0.2,-1.6 -3,-1 c 0,0 -2.7,-0.7 -2.7,-0.7 -7.9,-1.7 -15.8,-3.7 -23.8,-4.8 -10.7,-1.5 -21.5,-2.6 -32.3,-3.7 -5.4,-0.5 -10.9,-0.9 -16.4,-1.1 -12.9,-0.4 -25.8,-0.6 -38.7,-1 0,0 -2.5,0.5 -2.7,-2 19.8,-1 39.4,0.6 59,2 19.6,1.4 56.1,8.1 56.1,8.1 0,0 1.2,-0.2 -2.4,-2.6 -1.4,-0.9 -7.3,-2.4 -7.2,-2.7 0,-0.2 4.7,0.5 6.9,0.9 3,0.5 6.3,1.7 7.9,2.6 0.4,0.2 0.8,0.6 0.8,1 0.2,6.7 0.5,13.1 0.7,19.5 0,0.5 0.3,0.9 0.8,1 15.1,3.5 16.1,3.9 17.3,4.7 1.1,0.7 2.7,2.5 0.1,1.3 -3.4,-1.5 -17.3,-4.8 -20.6,-5.3 -8.3,-1.2 -16.6,-2.2 -24.9,-3.2 -1.2,-0.1 -2.4,-0.2 -3.5,-0.5 -3.1,-0.6 -2.9,-0.6 -3.2,-4.2 -0.2,-2.4 -0.3,-6.6 -0.3,-6.6 l -0.2,-4.2 c 0,-0.7 0.5,-1.2 1.2,-1.2 1.2,0.1 3,0.3 4.4,0.6 0.5,0.1 0.9,0.5 0.9,1 0.3,4.7 0.5,9.1 0.7,13.8 0.7,0.1 1.4,0.1 2.4,0.2 -0.1,-1.3 -0.1,-3.4 -0.1,-3.4 l 1.6,0.1 c 0,0 0,0 0.1,-0.9 -1.2,-0.3 -1.6,-0.4 -1.6,-0.4 v -1.2 l 1.8,0.2 c 0,-0.1 -0.1,-1.1 -0.1,-1.1 -0.6,0 -1.8,-0.1 -1.8,-0.1 m 17.7,8.9 c 0.2,0 0.4,0 0.5,0 0,-3.3 0,-6.5 0,-9.8 -0.2,0 -0.4,0 -0.5,0 0,3.2 0,6.5 0,9.8 z"
   id="path10"
   inkscape:connector-curvature="0" />
	<path
   d="m 415.5,444.2 -0.2,4.4 c -0.1,1.4 -1.2,2.4 -2.5,2.4 h -3.1 c -1.3,0 -2.4,-1 -2.5,-2.2 l -0.4,-3.2 c -0.9,0 -1.7,0.1 -2.4,0 -2.9,-0.3 -4.4,-1.9 -4.6,-4.8 -0.1,-1.2 0,-2.4 0,-3.5 0,-4.2 0,-8.3 0,-12.5 0,-3.2 0.7,-4.2 3.9,-4.5 4.5,-0.4 8.9,0.2 13.4,0.1 3.2,0.2 4.3,0.3 5.5,0.5 1.2,0.2 2.1,1.2 2.2,2.4 0.2,5.2 0.4,10.2 0.3,15.2 -0.1,4.1 -1.9,5.4 -6.1,5.6 -1.1,0 -2.1,0.1 -3.5,0.1 z"
   id="path12"
   inkscape:connector-curvature="0" />
	<path
   d="m 335.3,311.6 c 0.2,-2.4 0.1,-5.9 0.1,-8.6 0,-0.6 0.5,-1.1 1.1,-1 2.3,0.1 5,0.3 7.4,0.3 0.6,0 1,0.5 1,1.1 0,3.3 -0.2,6.2 0.1,9.3 0.2,0 0.5,0 0.7,0 v -8.8 c 0,-0.6 0.5,-1.1 1.2,-1.1 3.8,0.3 2.8,0.1 7.3,0.3 0.5,0 1,0.5 1,1 0.1,3 -0.3,6.1 -0.1,9.5 0,0.6 -0.5,1.1 -1.1,1.1 -3.7,-0.2 -7.5,-0.4 -11.2,-0.6 -8.4,-0.6 -16.7,-1.4 -25.1,-1.7 -6.9,-0.2 -13.4,-0.1 -20.3,0 -0.4,0 -1.5,0.1 -2.2,-0.1 0,-3.9 0,-7.5 0,-11.2 0.2,0 1,0.1 1.2,0.1 0,3.2 -0.1,6.1 0.1,9.2 0.1,0 0.6,0.1 0.7,0.1 0,0 0,-5.2 0.1,-8.4 0,-0.6 0.3,-1 0.8,-1 2.2,-0.1 4.3,0.1 6.4,0.2 0.6,0 1.3,0.5 1.3,1 l 0.1,8.8 c 0.3,0 0.6,0 0.9,0 v -8.6 c 0,-0.6 0.5,-1.1 1.1,-1.1 h 6.3 c 0.6,0 1.1,0.5 1.1,1.1 v 8.5 c 0.3,0 0.7,-0.1 1,-0.1 v -8.4 c 0,-0.6 0.2,-1 0.8,-1 h 6.6 c 0.6,0 0.7,0.4 0.7,1 v 8.1 c 0.2,0 0.8,0.1 1,0.1 v -8.1 c 0,-0.6 0.5,-1.1 1.1,-1.1 h 6.3 c 0.6,0 1,0.5 1.1,1 0.2,3.2 0,5.8 0.2,8.9"
   id="path14"
   inkscape:connector-curvature="0" />
	<path
   d="m 337.9,292.9 v -4.5 c 0,-1.2 1,-2.1 2.2,-1.9 l 3.2,0.4 c 0.9,0.1 1.6,0.9 1.7,1.8 l 0.3,4.1 c 0.1,1.1 -0.8,2.1 -1.9,2.1 -7.3,0 -14.5,-1 -21.7,-1.3 -7.4,-0.3 -16.3,-0.6 -24.3,-0.9 -1.2,0 -2.1,-1.1 -2.1,-2.3 0,-1.2 0,-2.4 0,-3.6 0,-1.2 1,-2.3 2.2,-2.3 2.3,-0.1 4.6,0 5.8,0 0.5,0 0.9,0.4 0.9,0.9 0,1.7 -0.1,5.5 -0.1,6.1 h 1.3 c 0,0 0.1,-3.2 0.1,-5.3 0,-1 0.8,-1.8 1.9,-1.8 1.5,0 3,0 3.9,0 0.5,0 0.9,0.4 0.9,0.9 v 6.2 h 0.9 l 0.4,-6.1 c 0,-0.5 0.4,-0.9 0.9,-0.8 1,0.1 2.7,0.1 4.5,0.3 0.5,0 0.9,0.4 0.8,0.9 -0.1,1.8 -0.2,5.7 0,5.7 0.8,0.1 1.1,0.1 1.1,0.1 0.2,0 0.4,-6.5 0.6,-6.5 1.9,0.1 4.8,0.3 6.1,0.5 0.5,0.1 0.9,0.4 0.9,0.9 l 0.4,5.9 c 0.2,0 0.8,0 0.9,0 l 0.3,-4.6 c 0.1,-1.2 0.2,-2 1.4,-1.9 0.7,0 3,0.1 3.7,0.2 1,0.1 1.2,0.6 1.3,1.6 l 0.4,5 c 0.2,0.1 0.9,0.2 1.1,0.2 z"
   id="path16"
   inkscape:connector-curvature="0" />
	<path
   d="m 295.2,343.7 c -0.7,-2.9 1.7,-2.6 3.1,-2.6 2.2,0.1 4.4,0.3 5.9,0.3 8.1,0.1 14.2,-0.2 21.3,0.1 12.2,0.5 24.3,1 36.5,1.9 19.7,1.4 39.4,3.9 58.8,7.5 4.2,0.8 8.6,1.5 12.5,3.2 2.1,0.9 4.5,2.7 5.4,3.6 0.6,0.8 0.2,0.7 0,0.6 -12.9,-5.1 -14.9,-4 -30.9,-7.2 -16.2,-2.6 -32.2,-4.1 -48.3,-5.6 -9.6,-0.9 -19.3,-1.1 -29,-1.5 -6.6,-0.3 -13.1,-0.3 -19.7,-0.3"
   id="path18"
   inkscape:connector-curvature="0" />
	<path
   d="m 470.2,440.6 c -0.4,-4.9 -0.5,-12.4 -0.1,-17.2 0.1,-1.7 1.6,-3.1 3.3,-3.1 l 1.8,0.2 c 1.8,0 3.3,1.5 3.3,3.3 V 440 c 0,2.4 -1.8,4.3 -4.2,4.5 v 0 c -2.4,0.2 -3.9,-1.5 -4.1,-3.9 z"
   id="path20"
   inkscape:connector-curvature="0" />
	<path
   d="m 323.2,332.2 c -0.8,-0.2 -0.6,-0.1 -2.4,-0.3 0,-0.5 0,-1.4 0,-1.4 h 2.7 c 0,0 0.2,-0.6 0.3,-1.3 -1.3,-0.2 -1.3,-0.2 -3,-0.3 0,-0.4 0,-1.1 0,-1.1 l 3.1,-0.3 c 0,0 0.1,-0.5 0.3,-1.3 -1.6,0 -2.3,-0.1 -3.4,-0.1 0,-0.7 0,-1.5 0,-1.5 l 5.9,-0.2 0.3,-1 c -1.1,0 -5.5,-0.2 -6.2,-0.2 0,0 -0.1,-0.3 0,-0.8 4.7,0.1 6.7,0.2 10,0.4 0.5,0 0.9,0.4 0.9,0.9 V 337 c 0,0.5 -0.4,1 -0.9,0.9 -3.4,0 -7.8,-0.2 -7.8,-0.2"
   id="path22"
   inkscape:connector-curvature="0" />
	<line
   x1="393.70001"
   y1="319.39999"
   x2="392.10001"
   y2="319.39999"
   id="line24" />
	<path
   d="m 367.4,315.5 v -10.6 c 0,-0.4 0.4,-0.8 0.8,-0.7 l 6.8,0.9 c 0.3,0 0.6,0.3 0.6,0.7 0.2,4.3 0,5.9 0.2,9.7 0.4,0 0.7,0.3 1.1,0.3 0.3,-3.4 0.1,-5.8 0.2,-9.5 0,-0.4 0.4,-0.7 0.8,-0.7 l 5.3,0.8 c 0.3,0 0.6,0.3 0.6,0.7 v 9.4 c 0.4,0 0.8,0.3 1.1,0.3 0,-3.2 -0.1,-6.5 -0.1,-10 0,0 3,0.5 3.7,0.7 l 2.7,0.7 1.9,0.8 c 0.6,0.2 4.7,1.8 6.2,6.2 1.1,3 0.7,5.4 0.7,5.4"
   id="path26"
   inkscape:connector-curvature="0" />
	<path
   d="m 388.7,305.9 c -9.3,-2.2 -15.3,-2.9 -22.6,-3.7 -11.2,-1.3 -22.5,-1.9 -33.7,-2.6 -11.5,-0.7 -34.6,-1.5 -34.6,-1.5 0,0 -3.2,-0.1 -2.6,-2.5 2,0 4,0 6.1,0 9.1,0.2 19.8,0.5 27.1,0.9 24.7,1.2 34,2.5 48.8,5 6.6,1.1 9.9,1.9 15.2,3.4 1.1,0.3 1.8,1.2 1.8,1.2 0.7,1.1 0.7,1.8 0.7,1.8 0,0 -4.6,-1.6 -6.2,-2 z"
   id="path28"
   inkscape:connector-curvature="0" />
	<path
   d="m 464.9,427.7 c 0,4.3 0.2,8.8 0.2,9 0.3,1.5 0.6,9.1 3.7,11.7 l 2.3,2.9 c 0,0 -13.9,-0.1 -20.3,0 -0.1,-0.3 -0.3,-2.6 -0.4,-2.9 1.4,-1.7 2.6,-1.4 4.2,-2.8 1.9,-1.7 2.5,-0.9 2.5,-6.2 0,-6.2 0.3,-19.8 -0.8,-26.9 1.8,0 5,0 5,0 0.4,4.7 0.4,22.9 0.4,30.3 0.3,0 0.6,0 0.9,0.1 0.2,-2.7 0.2,-5.7 0.3,-8.4 0.1,-6.3 0,-7.3 2,-6.8 z"
   id="path30"
   inkscape:connector-curvature="0" />
	<path
   d="m 295.3,282.4 -0.1,-2.4 c 0,0 7.2,0 9.9,0.1 5.6,0.2 11.3,0.3 16.9,0.8 14.6,1.3 17.8,1.1 34.3,4.3 3.6,0.7 6.4,1.2 10.6,2.9 2.6,1 3.9,2.4 3.9,5.1 0,1.4 0,2.8 0,4.7 -3.6,-0.3 -6.7,-0.6 -10,-1 0,-2.6 0,-6.2 0,-8.5 0.8,-0.2 -6.7,-2 -22.5,-3.9 -10.7,-1.3 -20.2,-2.6 -43,-2.1 z"
   id="path32"
   inkscape:connector-curvature="0" />
	<path
   d="M 322.7,399.1 H 306 c -0.7,0 -1.2,-0.5 -1.2,-1.2 v -10.8 c 0,-1.2 2.5,-0.7 3.2,-0.7 5.6,0 4.4,-0.1 4.6,4 0.1,2 0.1,7.5 0.1,7.5 0,0 0.3,0.2 1,0.1 0.2,-2.7 0.2,-10 0.2,-10 0,-0.7 0.9,-1.3 1.7,-1.3 3.1,0 4.3,-0.1 6.3,0.2 0.5,0.1 0.4,0.9 0.4,1.4 0.2,3.5 0.4,7.5 0.6,10.8 z"
   id="path34"
   inkscape:connector-curvature="0" />
	<path
   d="m 296.3,322.2 h 8.1 c 0.6,0 1.1,0.5 1.1,1.1 l -0.1,13.4 c 0,0.6 -0.5,1.1 -1.1,1.1 h -8 c -0.6,0 -1.1,-0.5 -1.1,-1.1 v -13.4 c 0,-0.6 0.5,-1.1 1.1,-1.1 z"
   id="path36"
   inkscape:connector-curvature="0" />
	<path
   d="m 295.2,258.4 c 0,-0.9 0,-1.3 0,-1.3 0,0 20.7,1.6 25.2,3.3 0,0 0.2,-1.2 -0.6,-1.7 -0.9,-0.7 -3.4,-1.6 -4.8,-2.1 -6.3,-2 -12.5,-3.1 -19.7,-3.4 l -0.1,-24.3 h 1 c 0,0 0.1,16.4 0.1,21.2 1,0.2 4.7,0.7 5.9,1 3.4,0.8 6,1.5 9,2.7 2.5,0.9 2.8,1 5,1.8 5.9,2.2 6.7,3 5.4,9.3 -0.1,0.5 -0.2,1 -0.3,2.1 -2,-0.2 -3.6,-0.4 -5.7,-0.7 0.3,-1.5 0.2,-1.9 0.4,-3.4 1.6,0.2 3.1,0.3 4.3,0.6 0.1,-0.3 0.2,-1.1 -0.5,-1.8 -1.2,-1.2 -12,-2.3 -13.1,-2.4 -3.3,-0.4 -11.5,-0.9 -11.5,-0.9 z"
   id="path38"
   inkscape:connector-curvature="0" />
	<path
   d="m 333.3,334.1 c 2.2,0 4.4,0 6.5,0 0,-0.3 0.1,-1.2 0.1,-1.5 -2.2,-0.2 -3.3,-0.1 -6.7,-0.4 0,-0.4 0.1,-1 0.1,-1.2 1.7,-0.1 2.4,-0.1 4.2,-0.3 0,0 0.2,-0.6 0.1,-1.3 -0.8,-0.2 -3.7,-0.3 -4.4,-0.4 0,0 0.1,-0.1 0.1,-1 0.6,-0.3 4.5,-0.5 4.5,-0.5 0,0 0.2,-0.8 0.2,-1.2 -1.4,-0.2 -2.3,-0.2 -4.8,-0.3 0.1,-0.5 0,-1 0,-1 l 4.8,-0.1 c 0,0 0.2,0 0.3,-0.7 -1.9,-0.2 -3.1,-0.2 -5,-0.3 0,-0.7 0.3,-0.9 0.3,-0.9 0,0 5.2,0.4 8.9,0.5 0.5,0 0.8,0.4 0.8,0.8 0.1,5.1 0,8.1 -0.2,12.8 0,0.5 -0.8,1 -1.3,1 -3.6,-0.1 -5,0 -8.6,-0.1"
   id="path40"
   inkscape:connector-curvature="0" />
	<path
   d="m 379.6,326.1 0.7,13.9 c 0,0.8 -0.6,1.4 -1.4,1.3 -2.8,-0.3 -5.3,-0.5 -7.8,-0.8 -0.1,-0.2 0,-0.9 -0.1,-1.2 0.9,0.1 2.2,0.1 2.2,0.1 0,0 0,-0.3 -0.1,-1.4 -0.7,-0.2 -0.9,-0.2 -1.9,-0.3 0,-0.7 -0.1,-2.1 -0.1,-2.1 0,0 1.3,0.2 2.2,0.2 l -0.1,-0.9 -2.1,-0.4 c 0,0 -0.3,-5.3 -0.2,-9.5"
   id="path42"
   inkscape:connector-curvature="0" />
	<path
   d="m 356.1,304.3 c 0,-0.6 0.6,-1.1 1.2,-1 2.7,0.2 6.2,0.5 6.2,0.5 l 2.3,0.3 c 0,0 0.2,6.4 0.1,10.6 0,0.6 -0.6,1 -1.2,1 l -7.6,-0.8 c -0.6,-0.1 -0.9,-0.5 -0.9,-1.1 0.1,-3.3 -0.2,-6.3 -0.1,-9.5 z"
   id="path44"
   inkscape:connector-curvature="0" />
	<path
   d="m 324.5,398.8 c -0.3,-4 -0.3,-8.1 -0.2,-11.6 1,-0.9 3.3,-0.3 3.4,-0.3 6.6,0.3 5.5,0.7 5.5,8.1 0,1.3 0,2.6 0,4.1"
   id="path46"
   inkscape:connector-curvature="0" />
	<path
   d="m 295.2,270.6 c 0.1,-2.3 0.1,-2.3 0.1,-2.3 0,0 17.3,0.2 25.2,0.8 5.7,0.4 11.5,0.9 17.1,2.3 2.5,0.6 4.5,1.3 6.7,2.1 0.6,0.2 1,1.1 1.3,2.1 -16.6,-5.1 -32.9,-4.4 -50.4,-5 z"
   id="path48"
   inkscape:connector-curvature="0" />
	<path
   d="m 315.5,275.1 c 0,0.7 0,1.3 0,2.1 0,0.6 -0.4,1 -1,1.1 -6,0.2 -12.2,-0.2 -18.2,0 -0.6,0 -1.1,-0.4 -1.1,-1 v -3.4 c 0,-1 0.9,-1.8 1.9,-1.7 l 16.9,1.2 c 0.8,0.1 1.5,0.8 1.5,1.7 z"
   id="path50"
   inkscape:connector-curvature="0" />
	<path
   d="m 301.5,399.2 c -2,0.2 -2.9,0 -5,-0.1 -0.6,0 -1,-0.5 -1,-1 0,-2.4 0,-8.9 0,-11.3 0,-0.6 0.5,-1.1 1.1,-1 l 5.1,0.2 c 0.5,0 1,0.4 1,1 0.1,3.1 -0.1,8.1 0,10.9 0.1,0.6 -0.5,1.2 -1.2,1.3 z"
   id="path52"
   inkscape:connector-curvature="0" />
	<path
   d="m 327.8,274.2 c 3.4,0.3 4.3,0.1 4.3,4.8 -4.8,-0.5 -9.5,-0.3 -14.4,-0.7 -0.4,0 -0.7,-0.4 -0.7,-0.8 v -4 z"
   id="path54"
   inkscape:connector-curvature="0" />
	<path
   d="m 314.9,266.2 c -6.6,-0.5 -13.2,-1.1 -19.7,-1.1 0,-1.3 0,-1.4 0,-2.9 1.7,0 7.2,0.2 8.4,0.3 5.2,0.2 11.3,0.5 11.3,0.5 0,0 0.3,0.8 0,3.2 z"
   id="path56"
   inkscape:connector-curvature="0" />
	<path
   d="m 346.7,287.4 c 0.4,0.1 3.6,0.4 5.4,0.5 0.5,0.1 0.6,0.9 0.7,1.4 0.1,1.4 0.3,3.6 0.5,5.2 0.1,0.6 -0.4,1.2 -1.1,1.1 -1.5,-0.2 -2.5,-0.4 -4.1,-0.5 -0.5,-0.1 -1,-0.5 -1,-1"
   id="path58"
   inkscape:connector-curvature="0" />
	<path
   d="m 355.2,288.6 4.2,0.6 0.2,7.4 -4.8,-0.5 c -0.2,-2.3 -0.3,-3.8 -0.5,-6.3 0.1,-0.7 0.4,-1.3 0.9,-1.2 z"
   id="path60"
   inkscape:connector-curvature="0" />
	<path
   d="m 371.9,410 c 4.7,-0.1 13.3,4.8 13.3,4.9 l -0.1,-0.1 c 0.1,0.4 0,6.6 0,6.6 L 371.8,420"
   id="path62"
   inkscape:connector-curvature="0" />
	<path
   d="m 431.2,395 c -0.7,0 -1.4,0 -2.1,0 -1.2,0 -2.2,-1 -2.2,-2.2 v -3.4 c 0,-1 0.8,-1.9 1.9,-2 0.7,-0.1 2.4,0.4 3.1,0.3 0,0 1.1,0.3 1.1,2 0,1.4 -0.1,2.3 0,3.5 0.1,1 -0.8,1.8 -1.8,1.8 z"
   id="path64"
   inkscape:connector-curvature="0" />
	<path
   d="m 409.8,344.1 c 0,-3.3 0,-9.1 0,-12.4 0.2,0 0.4,0 0.5,0 0,3.3 0,9.1 0,12.4 -0.1,0 -0.3,0 -0.5,0 z"
   id="path66"
   inkscape:connector-curvature="0" />
	<path
   d="m 309.6,333.4 3.8,-0.2 c 0,0.3 0,0.5 0,0.8 -1.3,0.1 -2.5,0.1 -3.8,0.2 0,-0.3 0,-0.3 0,-0.8 z"
   id="path68"
   inkscape:connector-curvature="0" />
	<path
   d="m 358.7,333.6 c 0,-0.4 0.1,-1 0.1,-1.2 1.7,-0.1 2.4,-0.1 4.2,-0.3 0,0 0.2,-0.6 0.1,-1.3 -0.8,-0.2 -3.7,-0.3 -4.4,-0.4 0,0 0.1,-0.1 0.1,-1 0.6,-0.3 4.5,-0.5 4.5,-0.5 0,0 0.2,-0.8 0.2,-1.2 -1.4,-0.2 -1.9,-0.1 -4.4,-0.3 0.1,-0.5 0,-1.1 0,-1.1 l 4.4,-0.1 c 0,0 0.2,0 0.3,-0.7 -1.9,-0.2 -2.7,-0.3 -4.6,-0.4 0,-0.7 -0.1,-0.8 -0.1,-0.8 0,0 5,0.3 8.7,0.5 0.6,0 1,0.5 1.1,1.1 0.2,4.1 0.4,8.9 0.5,13 0,0.7 -0.5,1.2 -1.2,1.2 -3.5,-0.2 -5.9,-0.6 -9.4,-0.7"
   id="path70"
   inkscape:connector-curvature="0" />
	<path
   d="m 346.2,334.3 c 2.2,0 4.4,0 6.5,0 0,-0.3 0.2,-0.3 0.2,-0.7 -2.2,-0.2 -4.5,0 -6.7,-0.4 0,-0.4 0.1,-1 0.1,-1.2 1.7,-0.1 2.4,-0.1 4.2,-0.3 0,0 0.2,-0.6 0.1,-1.3 -0.8,-0.2 -3.7,-0.3 -4.4,-0.4 0,0 0.1,-0.1 0.1,-1 0.6,-0.3 4.5,-0.5 4.5,-0.5 0,0 0.2,-0.8 0.2,-1.2 -1.4,-0.2 -1.9,-0.1 -4.4,-0.3 0.1,-0.5 0,-1.1 0,-1.1 l 1.1,-0.1 c 0,0 0.2,0 0.3,-0.7 l -1.3,-0.2 c 0,-0.7 -0.1,-1.3 -0.1,-1.3 0,0 4.9,0.4 8.6,0.6 0.6,0 1.1,0.5 1.1,1.1 0.2,4 0.4,8.4 0.6,12.4 0,0.7 -0.6,1.3 -1.3,1.3 -3.4,-0.2 -5.8,-0.6 -9.3,-0.8"
   id="path72"
   inkscape:connector-curvature="0" />
	<path
   d="m 308.9,322.2 h 8.1 c 0.6,0 1.1,0.5 1.1,1.1 l -0.1,13.4 c 0,0.6 -0.5,1.1 -1.1,1.1 h -8 c -0.6,0 -1.1,-0.5 -1.1,-1.1 v -13.4 c 0,-0.6 0.5,-1.1 1.1,-1.1 z"
   id="path74"
   inkscape:connector-curvature="0" />
	<path
   d="m 481.7,440.6 c -0.4,-4.9 -0.5,-12.4 -0.1,-17.2 0.1,-1.7 1.6,-3.1 3.3,-3.1 l 1.8,0.2 c 1.8,0 3.3,1.5 3.3,3.3 V 440 c 0,2.4 -1.8,4.3 -4.2,4.5 v 0 c -2.4,0.2 -3.9,-1.5 -4.1,-3.9 z"
   id="path76"
   inkscape:connector-curvature="0" />
	<path
   d="m 492.4,440.6 c -0.4,-4.9 -0.5,-12.4 -0.1,-17.2 0.1,-1.7 1.6,-3.1 3.3,-3.1 l 1.8,0.2 c 1.8,0 3.3,1.5 3.3,3.3 V 440 c 0,2.4 -1.8,4.3 -4.2,4.5 v 0 c -2.4,0.2 -3.9,-1.5 -4.1,-3.9 z"
   id="path78"
   inkscape:connector-curvature="0" />
	<path
   d="m 443.7,444.4 -0.2,4.4 c -0.1,1.4 -1.2,2.4 -2.5,2.4 h -3.1 c -1.3,0 -2.4,-1 -2.5,-2.2 l -0.4,-3.2 c -0.9,0 -1.7,0.1 -2.4,0 -2.9,-0.3 -4.4,-1.9 -4.6,-4.8 -0.1,-1.2 0,-2.4 0,-3.5 0,-4.2 0,-8.3 0,-12.5 0,-3.2 0.7,-4.2 3.9,-4.5 4.5,-0.4 8.9,0.2 13.4,0.1 3.2,0.2 4.3,0.3 5.5,0.5 1.2,0.2 2.1,1.2 2.2,2.4 0.2,5.2 0.4,10.2 0.3,15.2 -0.1,4.1 -1.9,5.4 -6.1,5.6 -1.1,0 -2.1,0 -3.5,0.1 z"
   id="path80"
   inkscape:connector-curvature="0" />
	<path
   d="m 443.1,395 c -0.7,0 -1.4,0 -2.1,0 -1.2,0 -2.2,-1 -2.2,-2.2 v -3.4 c 0,-1 0.8,-1.9 1.9,-2 0.7,-0.1 2.4,0.4 3.1,0.3 0,0 1.1,0.3 1.1,2 0,1.4 -0.1,2.3 0,3.5 0,1 -0.8,1.8 -1.8,1.8 z"
   id="path82"
   inkscape:connector-curvature="0" />
	<path
   d="m 454.4,395 c -0.7,0 -1.4,0 -2.1,0 -1.2,0 -2.2,-1 -2.2,-2.2 v -3.4 c 0,-1 0.8,-1.9 1.9,-2 0.7,-0.1 2.3,1.1 3.1,1 0,0 1.2,-0.5 1.1,1.1 0,1.4 -0.1,2.4 0,3.6 0.1,1 -0.7,1.9 -1.8,1.9 z"
   id="path84"
   inkscape:connector-curvature="0" />
	<path
   d="m 88.5,506.8 c 2.3,1.4 6,2.6 9.8,2.6 4.7,0 7.3,-2.2 7.3,-5.5 0,-3.1 -2,-4.9 -7.2,-6.7 -6.7,-2.4 -11,-5.9 -11,-11.8 0,-6.7 5.5,-11.6 14.4,-11.6 4.4,0 7.6,1 9.7,2 l -1.7,5.9 c -1.5,-0.8 -4.3,-1.9 -8.1,-1.9 -4.7,0 -6.7,2.5 -6.7,4.9 0,3.1 2.3,4.6 7.8,6.7 7,2.6 10.4,6.2 10.4,12 0,6.5 -4.9,12.2 -15.3,12.2 -4.3,0 -8.8,-1.2 -11,-2.6 z"
   id="path86"
   inkscape:connector-curvature="0" />
	<path
   d="M 185.5,480.6 H 174 v -6.2 h 30.6 v 6.2 h -11.7 v 34.3 h -7.4 z"
   id="path88"
   inkscape:connector-curvature="0" />
	<path
   d="m 262.8,476.5 c -0.4,-0.4 -0.3,-1.2 0.2,-1.4 1.6,0.1 4.3,0.2 6.2,0.2 1.7,0 4.8,-0.1 6.9,-0.2 0.5,0.2 0.5,1 0.1,1.4 l -1.4,0.1 c -1.3,0.1 -2,0.5 -2,1 0,0.7 1.3,3.8 3.1,8 3.4,7.5 6.9,15 10.4,22.4 1.4,-3 3.1,-6.4 4.6,-9.7 0.5,-1.1 1,-2.2 1,-2.5 0,-0.3 -0.2,-0.8 -0.5,-1.6 -2.1,-4.8 -4.3,-9.6 -6.6,-14.4 -0.9,-1.9 -1.8,-3.1 -3.8,-3.3 l -1.4,-0.1 c -0.4,-0.5 -0.4,-1.2 0.1,-1.4 1.7,0.1 4,0.2 6.4,0.2 3,0 5.2,-0.1 6.6,-0.2 0.4,0.2 0.5,1 0.1,1.4 l -1.6,0.1 c -2.3,0.2 -2.4,0.6 -1.3,3.3 1.3,2.9 2.9,6.7 4.6,10.4 1.1,-2.3 2.2,-4.6 3.5,-7.9 2.2,-5.1 1.9,-5.8 -0.1,-5.9 l -1.8,-0.1 c -0.4,-0.6 -0.3,-1.3 0.1,-1.4 1.6,0.1 3.4,0.2 5.7,0.2 2,0 4.4,-0.1 5.8,-0.2 0.4,0.2 0.5,1 0.1,1.4 l -1.7,0.1 c -2.5,0.2 -3.6,2.9 -4.9,5.3 -1.3,2.2 -3.8,7.4 -4.7,9.5 -0.3,0.6 -0.5,1.2 -0.5,1.4 0,0.2 0.1,0.7 0.4,1.4 2,4.6 4.2,9.1 6.1,13.7 1.9,-4.2 3.7,-8.4 5.4,-12.7 1.2,-2.9 4.4,-10.9 4.8,-11.9 0.8,-2.2 1.8,-4.7 1.8,-5.5 0,-0.8 -0.7,-1.3 -2,-1.4 l -1.7,-0.1 c -0.5,-0.5 -0.4,-1.2 0.1,-1.4 2.3,0.1 3.9,0.2 5.8,0.2 2.3,0 4,-0.1 5.6,-0.2 0.5,0.2 0.5,1 0.1,1.4 l -1.1,0.1 c -3,0.3 -3.5,2.1 -7.2,10.4 l -4.4,10.1 c -2.6,6.1 -5.1,12 -7.5,18.4 -0.2,0.1 -0.4,0.2 -0.7,0.2 -0.3,0 -0.6,-0.1 -0.8,-0.2 -1.9,-5.3 -5.4,-12.8 -7.3,-17 -2.2,4.4 -5.8,12.1 -7.5,17 -0.2,0.1 -0.4,0.2 -0.7,0.2 -0.3,0 -0.6,-0.1 -0.9,-0.2 -1,-2.5 -3.4,-7.9 -4.2,-9.7 -3.8,-8.3 -7.6,-16.7 -11.5,-25 -1.1,-2.5 -1.9,-4.1 -4.4,-4.3 z"
   id="path90"
   inkscape:connector-curvature="0" />
	<path
   d="M 389.1,474.4 V 498 c 0,7.9 3.3,11.6 8.3,11.6 5.4,0 8.5,-3.7 8.5,-11.6 v -23.6 h 7.4 v 23.1 c 0,12.5 -6.4,18 -16.2,18 -9.4,0 -15.5,-5.2 -15.5,-17.9 v -23.2 z"
   id="path92"
   inkscape:connector-curvature="0" />
	<path
   d="m 479.7,475 c 2.8,-0.5 6.9,-0.9 11.2,-0.9 5.8,0 9.7,1 12.5,3.2 2.2,1.9 3.5,4.7 3.5,8.2 0,5.2 -3.6,8.8 -7.4,10.1 v 0.2 c 2.9,1.1 4.7,3.9 5.7,7.8 1.3,5 2.4,9.7 3.2,11.3 h -7.6 c -0.6,-1.2 -1.6,-4.5 -2.7,-9.5 -1.2,-5.3 -3.1,-7 -7.3,-7.1 H 487 v 16.6 h -7.3 z m 7.3,17.9 h 4.4 c 5,0 8.1,-2.6 8.1,-6.7 0,-4.4 -3.1,-6.5 -7.9,-6.5 -2.3,0 -3.8,0.2 -4.6,0.4 z"
   id="path94"
   inkscape:connector-curvature="0" />
	<path
   d="m 86.9,553.5 c 1.1,0.7 2.7,1.3 4.4,1.3 2.5,0 4,-1.3 4,-3.3 0,-1.8 -1,-2.8 -3.6,-3.8 -3.1,-1.1 -5.1,-2.8 -5.1,-5.5 0,-3 2.5,-5.2 6.2,-5.2 1.9,0 3.4,0.5 4.2,0.9 l -0.7,2 c -0.6,-0.4 -1.9,-0.9 -3.6,-0.9 -2.6,0 -3.6,1.6 -3.6,2.9 0,1.8 1.2,2.7 3.8,3.7 3.3,1.3 4.9,2.8 4.9,5.7 0,3 -2.2,5.6 -6.7,5.6 -1.9,0 -3.9,-0.6 -4.9,-1.3 z"
   id="path96"
   inkscape:connector-curvature="0" />
	<path
   d="m 105,539.4 h -5.9 v -2.1 h 14.3 v 2.1 h -5.9 v 17.1 H 105 Z"
   id="path98"
   inkscape:connector-curvature="0" />
	<path
   d="m 131.2,546.7 c 0,6.6 -4,10.1 -9,10.1 -5.1,0 -8.7,-4 -8.7,-9.8 0,-6.1 3.8,-10.1 8.9,-10.1 5.4,0 8.8,4.1 8.8,9.8 z m -15,0.3 c 0,4.1 2.2,7.8 6.2,7.8 4,0 6.2,-3.6 6.2,-8 0,-3.9 -2,-7.9 -6.2,-7.9 -4.1,0.1 -6.2,3.9 -6.2,8.1 z"
   id="path100"
   inkscape:connector-curvature="0" />
	<path
   d="m 137.6,556.5 -4.9,-19.3 h 2.6 l 2.3,9.7 c 0.6,2.4 1.1,4.8 1.4,6.7 h 0.1 c 0.3,-1.9 0.9,-4.2 1.6,-6.7 l 2.6,-9.7 h 2.6 l 2.3,9.8 c 0.5,2.3 1.1,4.6 1.3,6.6 h 0.1 c 0.4,-2.1 0.9,-4.3 1.5,-6.7 l 2.5,-9.7 h 2.5 l -5.5,19.3 H 148 l -2.4,-10 c -0.6,-2.5 -1,-4.3 -1.3,-6.3 h -0.1 c -0.3,1.9 -0.8,3.8 -1.5,6.3 l -2.7,10 z"
   id="path102"
   inkscape:connector-curvature="0" />
	<path
   d="m 160.2,550.5 -2,6.1 h -2.6 l 6.6,-19.3 h 3 l 6.6,19.3 h -2.7 l -2.1,-6.1 z m 6.3,-2 -1.9,-5.5 c -0.4,-1.3 -0.7,-2.4 -1,-3.5 h -0.1 c -0.3,1.1 -0.6,2.3 -1,3.5 l -1.9,5.6 h 5.9 z"
   id="path104"
   inkscape:connector-curvature="0" />
	<path
   d="m 174.6,537.5 c 1.3,-0.2 3.1,-0.4 4.8,-0.4 2.7,0 4.4,0.5 5.6,1.6 0.9,0.9 1.5,2.2 1.5,3.7 0,2.5 -1.6,4.2 -3.6,4.9 v 0.1 c 1.5,0.5 2.3,1.9 2.8,3.9 0.6,2.7 1.1,4.5 1.5,5.3 h -2.6 c -0.3,-0.6 -0.7,-2.2 -1.3,-4.6 -0.6,-2.7 -1.6,-3.7 -3.9,-3.7 H 177 v 8.3 h -2.5 v -19.1 z m 2.4,8.8 h 2.5 c 2.7,0 4.4,-1.5 4.4,-3.7 0,-2.5 -1.8,-3.6 -4.4,-3.6 -1.2,0 -2,0.1 -2.5,0.2 z"
   id="path106"
   inkscape:connector-curvature="0" />
	<path
   d="m 188.6,555.1 10.7,-15.6 v -0.1 h -9.8 v -2.1 h 13 v 1.5 l -10.6,15.6 v 0.1 h 10.8 v 2.1 h -14.1 z"
   id="path108"
   inkscape:connector-curvature="0" />
	<path
   d="m 210.1,556.5 v -8.2 L 204,537.2 h 2.9 l 2.7,5.3 c 0.7,1.5 1.3,2.6 1.9,4 h 0.1 c 0.5,-1.3 1.2,-2.5 1.9,-4 l 2.8,-5.3 h 2.8 l -6.4,11.1 v 8.2 z"
   id="path110"
   inkscape:connector-curvature="0" />
	<path
   d="m 220.6,553.5 c 1.1,0.7 2.7,1.3 4.4,1.3 2.5,0 4,-1.3 4,-3.3 0,-1.8 -1,-2.8 -3.6,-3.8 -3.1,-1.1 -5.1,-2.8 -5.1,-5.5 0,-3 2.5,-5.2 6.2,-5.2 1.9,0 3.4,0.5 4.2,0.9 l -0.7,2 c -0.6,-0.4 -1.9,-0.9 -3.6,-0.9 -2.6,0 -3.6,1.6 -3.6,2.9 0,1.8 1.2,2.7 3.8,3.7 3.3,1.3 4.9,2.8 4.9,5.7 0,3 -2.2,5.6 -6.7,5.6 -1.9,0 -3.9,-0.6 -4.9,-1.3 z"
   id="path112"
   inkscape:connector-curvature="0" />
	<path
   d="m 233.7,555.1 10.7,-15.6 v -0.1 h -9.8 v -2.1 h 13 v 1.5 L 237,554.4 v 0.1 h 10.8 v 2.1 h -14.1 z"
   id="path114"
   inkscape:connector-curvature="0" />
	<path
   d="m 260.8,547.5 h -7.5 v 6.9 h 8.4 v 2.1 h -10.9 v -19.3 h 10.5 v 2.1 h -7.9 v 6.1 h 7.5 v 2.1 z"
   id="path116"
   inkscape:connector-curvature="0" />
	<path
   d="m 264.9,556.5 v -19.3 h 2.7 l 6.2,9.7 c 1.4,2.3 2.5,4.3 3.4,6.3 h 0.1 c -0.2,-2.6 -0.3,-4.9 -0.3,-7.9 v -8.1 h 2.3 v 19.3 h -2.5 l -6.1,-9.8 c -1.3,-2.1 -2.6,-4.3 -3.6,-6.4 H 267 c 0.1,2.4 0.2,4.7 0.2,7.9 v 8.2 h -2.3 z"
   id="path118"
   inkscape:connector-curvature="0" />
	<path
   d="m 286.2,537.3 v 19.3 h -2.5 v -19.3 z"
   id="path120"
   inkscape:connector-curvature="0" />
	<path
   d="M 300.5,547.5 H 293 v 6.9 h 8.4 v 2.1 H 290.5 V 537.2 H 301 v 2.1 h -8 v 6.1 h 7.5 z"
   id="path122"
   inkscape:connector-curvature="0" />
	<path
   d="m 312.8,556.5 -4.9,-19.3 h 2.6 l 2.3,9.7 c 0.6,2.4 1.1,4.8 1.4,6.7 h 0.1 c 0.3,-1.9 0.9,-4.2 1.6,-6.7 l 2.6,-9.7 h 2.6 l 2.3,9.8 c 0.5,2.3 1.1,4.6 1.3,6.6 h 0.1 c 0.4,-2.1 0.9,-4.3 1.5,-6.7 l 2.5,-9.7 h 2.5 l -5.5,19.3 h -2.6 l -2.4,-10 c -0.6,-2.5 -1,-4.3 -1.3,-6.3 h -0.1 c -0.3,1.9 -0.8,3.8 -1.5,6.3 l -2.7,10 z"
   id="path124"
   inkscape:connector-curvature="0" />
	<path
   d="m 333.9,537.5 c 1.3,-0.2 3.1,-0.4 4.8,-0.4 2.7,0 4.4,0.5 5.6,1.6 0.9,0.9 1.5,2.2 1.5,3.7 0,2.5 -1.6,4.2 -3.6,4.9 v 0.1 c 1.5,0.5 2.3,1.9 2.8,3.9 0.6,2.7 1.1,4.5 1.5,5.3 h -2.6 c -0.3,-0.6 -0.7,-2.2 -1.3,-4.6 -0.6,-2.7 -1.6,-3.7 -3.9,-3.7 h -2.3 v 8.3 h -2.5 z m 2.5,8.8 h 2.5 c 2.7,0 4.4,-1.5 4.4,-3.7 0,-2.5 -1.8,-3.6 -4.4,-3.6 -1.2,0 -2,0.1 -2.5,0.2 z"
   id="path126"
   inkscape:connector-curvature="0" />
	<path
   d="m 365.8,546.7 c 0,6.6 -4,10.1 -9,10.1 -5.1,0 -8.7,-4 -8.7,-9.8 0,-6.1 3.8,-10.1 8.9,-10.1 5.4,0 8.8,4.1 8.8,9.8 z m -15,0.3 c 0,4.1 2.2,7.8 6.2,7.8 4,0 6.2,-3.6 6.2,-8 0,-3.9 -2,-7.9 -6.2,-7.9 -4.1,0.1 -6.2,3.9 -6.2,8.1 z"
   id="path128"
   inkscape:connector-curvature="0" />
	<path
   d="m 382.5,555.9 c -0.9,0.5 -2.7,0.9 -5.1,0.9 -5.4,0 -9.5,-3.4 -9.5,-9.8 0,-6.1 4.1,-10.1 10.1,-10.1 2.4,0 3.9,0.5 4.6,0.9 l -0.6,2 c -0.9,-0.5 -2.3,-0.8 -3.9,-0.8 -4.5,0 -7.5,2.9 -7.5,7.9 0,4.7 2.7,7.7 7.4,7.7 1.5,0 3.1,-0.3 4.1,-0.8 z"
   id="path130"
   inkscape:connector-curvature="0" />
	<path
   d="m 385.7,556.5 v -7.7 l -2.4,1.7 v -1.9 l 2.4,-1.7 v -9.7 h 2.5 v 7.9 l 3.8,-2.8 v 1.9 l -3.8,2.8 v 7.3 h 8.2 v 2.1 h -10.7 z"
   id="path132"
   inkscape:connector-curvature="0" />
	<path
   d="m 402.4,550.5 -2,6.1 h -2.6 l 6.6,-19.3 h 3 l 6.6,19.3 h -2.7 l -2.1,-6.1 z m 6.4,-2 -1.9,-5.5 c -0.4,-1.3 -0.7,-2.4 -1,-3.5 h -0.1 c -0.3,1.1 -0.6,2.3 -1,3.5 l -1.9,5.6 h 5.9 z"
   id="path134"
   inkscape:connector-curvature="0" />
	<path
   d="m 418.4,556.5 -4.9,-19.3 h 2.6 l 2.3,9.7 c 0.6,2.4 1.1,4.8 1.4,6.7 h 0.1 c 0.3,-1.9 0.9,-4.2 1.6,-6.7 l 2.6,-9.7 h 2.6 l 2.3,9.8 c 0.5,2.3 1.1,4.6 1.3,6.6 h 0.1 c 0.4,-2.1 0.9,-4.3 1.5,-6.7 l 2.5,-9.7 h 2.5 l -5.5,19.3 H 429 l -2.4,-10 c -0.6,-2.5 -1,-4.3 -1.3,-6.3 h -0.1 c -0.3,1.9 -0.8,3.8 -1.5,6.3 l -2.7,10 z"
   id="path136"
   inkscape:connector-curvature="0" />
	<path
   d="m 439.2,553.5 c 1.1,0.7 2.7,1.3 4.4,1.3 2.5,0 4,-1.3 4,-3.3 0,-1.8 -1,-2.8 -3.6,-3.8 -3.1,-1.1 -5.1,-2.8 -5.1,-5.5 0,-3 2.5,-5.2 6.2,-5.2 1.9,0 3.4,0.5 4.2,0.9 l -0.7,2 c -0.6,-0.4 -1.9,-0.9 -3.6,-0.9 -2.6,0 -3.6,1.6 -3.6,2.9 0,1.8 1.2,2.7 3.8,3.7 3.3,1.3 4.9,2.8 4.9,5.7 0,3 -2.2,5.6 -6.7,5.6 -1.9,0 -3.9,-0.6 -4.9,-1.3 z"
   id="path138"
   inkscape:connector-curvature="0" />
	<path
   d="m 453.6,537.3 h 2.5 v 9.3 h 0.1 c 0.5,-0.7 1,-1.4 1.5,-2.1 l 5.9,-7.2 h 3.1 l -7,8.2 7.5,11.1 h -2.9 l -6.3,-9.5 -1.9,2.1 v 7.3 h -2.5 z"
   id="path140"
   inkscape:connector-curvature="0" />
	<path
   d="m 471.6,537.3 v 19.3 h -2.5 v -19.3 z"
   id="path142"
   inkscape:connector-curvature="0" />
	<path
   d="m 489.4,555.9 c -0.9,0.5 -2.7,0.9 -5.1,0.9 -5.4,0 -9.5,-3.4 -9.5,-9.8 0,-6.1 4.1,-10.1 10.1,-10.1 2.4,0 3.9,0.5 4.6,0.9 l -0.6,2 c -0.9,-0.5 -2.3,-0.8 -3.9,-0.8 -4.5,0 -7.5,2.9 -7.5,7.9 0,4.7 2.7,7.7 7.4,7.7 1.5,0 3.1,-0.3 4.1,-0.8 z"
   id="path144"
   inkscape:connector-curvature="0" />
	<path
   d="m 495,537.3 v 8.1 h 9.3 v -8.1 h 2.5 v 19.3 h -2.5 v -9 H 495 v 9 h -2.5 v -19.3 z"
   id="path146"
   inkscape:connector-curvature="0" />
	<path
   d="M 186.7,571.5 V 583 c 0,4.3 1.9,6.1 4.5,6.1 2.8,0 4.7,-1.9 4.7,-6.1 v -11.4 h 2.5 v 11.3 c 0,5.9 -3.1,8.3 -7.3,8.3 -4,0 -6.9,-2.2 -6.9,-8.2 v -11.3 h 2.5 z"
   id="path148"
   inkscape:connector-curvature="0" />
	<path
   d="m 201.4,589.3 10.7,-15.6 v -0.1 h -9.8 v -2.1 h 13 v 1.5 l -10.6,15.6 v 0.1 h 10.8 v 2.1 h -14.1 z m 5.7,-20.5 c 0,-0.7 0.6,-1.4 1.4,-1.4 0.8,0 1.4,0.7 1.4,1.4 0,0.8 -0.6,1.5 -1.4,1.5 -0.8,-0.1 -1.4,-0.8 -1.4,-1.5 z"
   id="path150"
   inkscape:connector-curvature="0" />
	<path
   d="m 222.8,590.8 v -8.2 l -6.1,-11.1 h 2.9 l 2.7,5.3 c 0.7,1.5 1.3,2.6 1.9,4 h 0.1 c 0.5,-1.3 1.2,-2.5 1.9,-4 l 2.8,-5.3 h 2.8 l -6.4,11.1 v 8.2 z"
   id="path152"
   inkscape:connector-curvature="0" />
	<path
   d="m 238.6,573.7 h -5.9 v -2.1 H 247 v 2.1 h -5.9 v 17.1 h -2.5 z"
   id="path154"
   inkscape:connector-curvature="0" />
	<path
   d="m 249.2,571.5 h 2.5 v 9.3 h 0.1 c 0.5,-0.7 1,-1.4 1.5,-2.1 l 5.9,-7.2 h 3.1 l -7,8.2 7.5,11.1 h -2.9 l -6.3,-9.5 -1.9,2.1 v 7.3 h -2.5 z"
   id="path156"
   inkscape:connector-curvature="0" />
	<path
   d="m 280.7,581 c 0,6.6 -4,10.1 -9,10.1 -5.1,0 -8.7,-4 -8.7,-9.8 0,-6.1 3.8,-10.1 8.9,-10.1 5.4,0 8.8,4 8.8,9.8 z m -15,0.3 c 0,4.1 2.2,7.8 6.2,7.8 4,0 6.2,-3.6 6.2,-8 0,-3.9 -2,-7.9 -6.2,-7.9 -4.1,0 -6.2,3.9 -6.2,8.1 z"
   id="path158"
   inkscape:connector-curvature="0" />
	<path
   d="m 287.1,590.8 -4.9,-19.3 h 2.6 l 2.3,9.7 c 0.6,2.4 1.1,4.8 1.4,6.7 h 0.1 c 0.3,-1.9 0.9,-4.2 1.6,-6.7 l 2.6,-9.7 h 2.6 l 2.3,9.8 c 0.5,2.3 1.1,4.6 1.3,6.6 h 0.1 c 0.4,-2.1 0.9,-4.3 1.5,-6.7 l 2.5,-9.7 h 2.5 l -5.5,19.3 h -2.6 l -2.4,-10 c -0.6,-2.5 -1,-4.3 -1.3,-6.3 h -0.1 c -0.3,1.9 -0.8,3.8 -1.5,6.3 l -2.7,10 z"
   id="path160"
   inkscape:connector-curvature="0" />
	<path
   d="m 308.1,590.8 v -19.3 h 2.7 l 6.2,9.7 c 1.4,2.3 2.5,4.3 3.4,6.3 h 0.1 c -0.2,-2.6 -0.3,-4.9 -0.3,-7.9 v -8.1 h 2.3 v 19.3 H 320 l -6,-9.8 c -1.3,-2.1 -2.6,-4.3 -3.6,-6.4 h -0.1 c 0.1,2.4 0.2,4.7 0.2,7.9 v 8.2 h -2.4 z"
   id="path162"
   inkscape:connector-curvature="0" />
	<path
   d="m 329.5,571.5 v 19.3 H 327 v -19.3 z"
   id="path164"
   inkscape:connector-curvature="0" />
	<path
   d="m 333.8,571.5 h 2.5 v 9.3 h 0.1 c 0.5,-0.7 1,-1.4 1.5,-2.1 l 5.9,-7.2 h 3.1 l -7,8.2 7.5,11.1 h -2.9 l -6.3,-9.5 -1.9,2.1 v 7.3 h -2.5 z"
   id="path166"
   inkscape:connector-curvature="0" />
	<path
   d="m 365.3,581 c 0,6.6 -4,10.1 -9,10.1 -5.1,0 -8.7,-4 -8.7,-9.8 0,-6.1 3.8,-10.1 8.9,-10.1 5.4,0 8.8,4 8.8,9.8 z m -15,0.3 c 0,4.1 2.2,7.8 6.2,7.8 4,0 6.2,-3.6 6.2,-8 0,-3.9 -2,-7.9 -6.2,-7.9 -4.1,0 -6.2,3.9 -6.2,8.1 z m 10.4,-14.2 -3.7,3.3 h -2 l 2.7,-3.3 z"
   id="path168"
   inkscape:connector-curvature="0" />
	<path
   d="m 371.7,590.8 -4.9,-19.3 h 2.6 l 2.3,9.7 c 0.6,2.4 1.1,4.8 1.4,6.7 h 0.1 c 0.3,-1.9 0.9,-4.2 1.6,-6.7 l 2.6,-9.7 h 2.6 l 2.3,9.8 c 0.5,2.3 1.1,4.6 1.3,6.6 h 0.1 c 0.4,-2.1 0.9,-4.3 1.5,-6.7 l 2.5,-9.7 h 2.5 l -5.5,19.3 h -2.6 l -2.4,-10 c -0.6,-2.5 -1,-4.3 -1.3,-6.3 h -0.1 c -0.3,1.9 -0.8,3.8 -1.5,6.3 l -2.7,10 z"
   id="path170"
   inkscape:connector-curvature="0" />
	<path
   d="m 398.8,571.8 c 1.3,-0.2 3.1,-0.4 4.8,-0.4 2.7,0 4.4,0.5 5.6,1.6 0.9,0.9 1.5,2.2 1.5,3.7 0,2.5 -1.6,4.2 -3.6,4.9 v 0.1 c 1.5,0.5 2.3,1.9 2.8,3.9 0.6,2.7 1.1,4.5 1.5,5.3 h -2.6 c -0.3,-0.6 -0.7,-2.2 -1.3,-4.6 -0.6,-2.7 -1.6,-3.7 -3.9,-3.7 h -2.3 v 8.3 h -2.5 z m 2.5,8.8 h 2.5 c 2.7,0 4.4,-1.5 4.4,-3.7 0,-2.5 -1.8,-3.6 -4.4,-3.6 -1.2,0 -2,0.1 -2.5,0.2 z"
   id="path172"
   inkscape:connector-curvature="0" />
	<rect
   x="281.89999"
   y="250"
   width="11"
   height="201"
   id="rect174" />
	<rect
   x="269.89999"
   y="255"
   width="11"
   height="195.89999"
   id="rect176" />
	<rect
   x="257.89999"
   y="267.60001"
   width="11"
   height="183.39999"
   id="rect178" />
	<rect
   x="245.7"
   y="277.20001"
   width="11"
   height="173.8"
   id="rect180" />
	<rect
   x="233.5"
   y="278.39999"
   width="11"
   height="172.60001"
   id="rect182" />
	<rect
   x="221.3"
   y="281.89999"
   width="11"
   height="169"
   id="rect184" />
	<rect
   x="209.2"
   y="298.70001"
   width="11"
   height="152.3"
   id="rect186" />
	<rect
   x="197.10001"
   y="302.70001"
   width="11"
   height="148.3"
   id="rect188" />
	<rect
   x="184.89999"
   y="317.70001"
   width="11"
   height="133.3"
   id="rect190" />
	<rect
   x="172.60001"
   y="345.79999"
   width="11"
   height="105.2"
   id="rect192" />
	<rect
   x="160.5"
   y="348.29999"
   width="11"
   height="102.8"
   id="rect194" />
	<rect
   x="148.39999"
   y="355.20001"
   width="11"
   height="95.800003"
   id="rect196" />
	<rect
   x="136.2"
   y="378.70001"
   width="11"
   height="72.300003"
   id="rect198" />
	<rect
   x="124.1"
   y="394"
   width="11"
   height="57"
   id="rect200" />
	<rect
   x="111.9"
   y="396.10001"
   width="11"
   height="54.900002"
   id="rect202" />
	<rect
   x="99.800003"
   y="397"
   width="11"
   height="54"
   id="rect204" />
	<rect
   x="87.699997"
   y="398"
   width="11"
   height="53"
   id="rect206" />
</g>
</svg>